# xmcd
#
# Track frame offsets: 
#        150
#        18331
#        38527
#        62647
#        93378
#        117729
#        141792
#        167606
#        189610
#        225260
#        249772
#
# Disc length: 3700 seconds
#
# Revision: 5
# Processed by: cddbd v1.5.2PL0 Copyright (c) Steve Scherf et al.
# Submitted via: ExactAudioCopy v0.99pb5
#
DISCID=830e720b
DTITLE=Various Artist - The Best of Cookin' Disc 2
DYEAR=2000
DGENRE=Acid Jazz
TTITLE0=Sweet Potato - Monkey Wrench
TTITLE1=Slide Five featuring Aiko - Streamline
TTITLE2=Greyboy featuring Karl Denson - Grey's Groove
TTITLE3=The Rhythm Section featuring Sonny Simmons - Tachyon
TTITLE4=Vibes Alive - Mantra
TTITLE5=Ping Pong featuring Kelly Huff - Bebop Props
TTITLE6=Skyjuice - Children
TTITLE7=The Rhythm Section - Waiting For The Sun
TTITLE8=Greyboy - Panacea (alt version)
TTITLE9=DJ Swingset - Peace on the Streets
TTITLE10=Sweet Potato - Wet Willie
EXTD=
EXTT0=
EXTT1=
EXTT2=
EXTT3=
EXTT4=
EXTT5=
EXTT6=
EXTT7=
EXTT8=
EXTT9=
EXTT10=
PLAYORDER=
